Coordinates
version=1
nRows=12
nColumns=46
inDegrees=yes

Units are S.I. units (second, meters, Newtons, ...)
Angles are in degrees.

endheader
time	pelvis_tilt	pelvis_list	pelvis_rotation	pelvis_tx	pelvis_ty	pelvis_tz	bb_angle	bb_tx	bb_ty	bb_tz	hip_flexion_r	hip_adduction_r	hip_rotation_r	knee_angle_r	knee_angle_r_beta	ankle_angle_r	subtalar_angle_r	mtp_angle_r	crank_angle_r	hip_flexion_l	hip_adduction_l	hip_rotation_l	knee_angle_l	knee_angle_l_beta	ankle_angle_l	subtalar_angle_l	mtp_angle_l	crank_angle_l	lumbar_extension	lumbar_bending	lumbar_rotation	arm_flex_r	arm_add_r	arm_rot_r	elbow_flex_r	pro_sup_r	wrist_flex_r	wrist_dev_r	arm_flex_l	arm_add_l	arm_rot_l	elbow_flex_l	pro_sup_l	wrist_flex_l	wrist_dev_l
      7.50500000	    -14.91695581	     -3.70915813	     -4.57281953	      0.17539578	      1.15954774	     -0.24930867	      0.00000000	      0.50000000	      0.00000000	      0.25000000	     93.37080596	     -3.36646218	     -3.46703165	    111.04094904	      1.93803017	    -17.58806170	    -13.77812015	      0.00000000	      0.00000000	     34.87834409	    -10.11959517	     -5.48978261	     35.25946634	      0.61539378	      7.64116245	      1.33701491	      0.00000000	      0.00000000	    -68.57648441	      5.19372268	      7.96580120	     89.74374948	     -6.68018349	     22.50458892	     63.69241952	     29.65866835	      0.00000000	      0.00000000	     85.08678821	     -8.36568331	      8.93036355	     61.19813827	     37.94708971	      0.00000000	      0.00000000
      7.51000000	    -15.39979688	     -3.91216564	     -4.97779372	      0.17486313	      1.16043436	     -0.24913311	      0.00000000	      0.50000000	      0.00000000	      0.25000000	     93.94569491	     -3.00232171	     -3.79643418	    110.09827724	      1.92157744	    -16.47427223	    -12.84099453	      0.00000000	      0.00000000	     35.60255105	    -10.86920136	     -6.14408790	     36.86238789	      0.64337004	      7.81055391	      2.18476175	      0.00000000	      0.00000000	    -68.22800676	      5.13768066	      8.41188587	     89.75301021	     -6.81499092	     22.86979148	     63.74645974	     29.43877390	      0.00000000	      0.00000000	     85.35221998	     -8.96257257	     10.05661435	     60.48269040	     38.10978741	      0.00000000	      0.00000000
      7.51500000	    -15.79139916	     -3.91459830	     -5.28605174	      0.17424096	      1.16142558	     -0.24927436	      0.00000000	      0.50000000	      0.00000000	      0.25000000	     94.35948943	     -2.73402443	     -3.92960676	    109.07452936	      1.90370967	    -15.59893891	    -12.36821257	      0.00000000	      0.00000000	     36.29511319	    -11.26714576	     -6.58731011	     38.47968633	      0.67159722	      7.46734279	      1.93465753	      0.00000000	      0.00000000	    -67.98701022	      5.06131912	      8.54176710	     89.76267609	     -6.77244137	     23.00058339	     63.94857638	     29.33761615	      0.00000000	      0.00000000	     85.54424903	     -9.31576948	     10.38768090	     60.20178165	     38.19293677	      0.00000000	      0.00000000
      7.52000000	    -16.24976656	     -3.92568957	     -5.56068858	      0.17336725	      1.16232292	     -0.24940816	      0.00000000	      0.50000000	      0.00000000	      0.25000000	     94.70505812	     -2.43270388	     -4.00830636	    107.88908050	      1.88301968	    -14.63736936	    -11.82853124	      0.00000000	      0.00000000	     37.19430230	    -11.63051814	     -6.80308689	     40.25159108	      0.70252279	      7.11664043	      1.60740865	      0.00000000	      0.00000000	    -67.72083459	      4.96371569	      8.65101565	     89.77158527	     -6.75982752	     23.10467931	     64.13284589	     29.19592467	      0.00000000	      0.00000000	     85.72126502	     -9.69543434	     10.81824415	     60.01238811	     38.31844578	      0.00000000	      0.00000000
      7.52500000	    -16.44378359	     -3.75342558	     -5.80940755	      0.17267219	      1.16364670	     -0.24951797	      0.00000000	      0.50000000	      0.00000000	      0.25000000	     94.67583610	     -2.13149405	     -3.90019228	    106.66239150	      1.86160992	    -13.65985089	    -11.72619806	      0.00000000	      0.00000000	     37.83919517	    -11.78837241	     -7.10500373	     42.06236522	      0.73412676	      6.62171347	      1.12042708	      0.00000000	      0.00000000	    -67.71596667	      4.68746376	      8.45662127	     89.78149394	     -6.74104010	     23.10521519	     64.28843618	     29.17659745	      0.00000000	      0.00000000	     86.01860430	     -9.90481297	     10.86655358	     59.99475932	     38.34650272	      0.00000000	      0.00000000
      7.53000000	    -17.09138180	     -3.90041025	     -6.09453957	      0.17177149	      1.16403644	     -0.24944187	      0.00000000	      0.50000000	      0.00000000	      0.25000000	     94.87075859	     -1.67871902	     -4.01771063	    105.22869478	      1.83658719	    -12.00093223	    -10.55563466	      0.00000000	      0.00000000	     39.20730267	    -12.31538963	     -7.05230584	     44.24268506	      0.77218052	      6.32912612	      0.66811531	      0.00000000	      0.00000000	    -67.30974545	      4.71617602	      8.73673397	     89.78711672	     -6.67010389	     23.25267377	     64.58942007	     28.92549282	      0.00000000	      0.00000000	     86.18533176	    -10.91980639	     11.82491413	     59.96502510	     38.61407198	      0.00000000	      0.00000000
      7.53500000	    -17.37760025	     -3.77044285	     -6.29813230	      0.17098642	      1.16506246	     -0.24938510	      0.00000000	      0.50000000	      0.00000000	      0.25000000	     94.62775313	     -1.32538140	     -3.91515849	    103.75519980	      1.81086985	    -10.70889574	    -10.39285916	      0.00000000	      0.00000000	     40.17218419	    -12.49552875	     -7.08192009	     46.32507597	      0.80852510	      5.79820561	      0.00944366	      0.00000000	      0.00000000	    -67.24254234	      4.49220313	      8.57725694	     89.79533996	     -6.59601851	     23.23639699	     64.83084826	     28.89112438	      0.00000000	      0.00000000	     86.49309902	    -11.27087640	     11.88989932	     59.99378529	     38.66581899	      0.00000000	      0.00000000
      7.54000000	    -17.71379084	     -3.67173292	     -6.49253657	      0.17022233	      1.16585471	     -0.24932250	      0.00000000	      0.50000000	      0.00000000	      0.25000000	     94.29300652	     -0.98092815	     -3.83168849	    102.16838663	      1.78317474	     -9.28544881	    -10.00330280	      0.00000000	      0.00000000	     41.30772600	    -12.70410110	     -7.02079309	     48.56312708	      0.84758646	      5.30844680	     -0.58815596	      0.00000000	      0.00000000	    -67.16218405	      4.33910208	      8.45759903	     89.79871084	     -6.51305499	     23.22254377	     65.07711827	     28.86284305	      0.00000000	      0.00000000	     86.72919291	    -11.64321148	     12.02520669	     60.09180237	     38.73154142	      0.00000000	      0.00000000
      7.54500000	    -18.21652890	     -3.74969621	     -6.59805877	      0.16941121	      1.16612017	     -0.24946761	      0.00000000	      0.50000000	      0.00000000	      0.25000000	     93.95189235	     -0.74237751	     -3.87381005	    100.47147250	      1.75355800	     -7.40576453	     -8.88995225	      0.00000000	      0.00000000	     42.77727323	    -12.93274380	     -6.43902828	     50.96405390	      0.88949054	      4.83524468	     -1.22970292	      0.00000000	      0.00000000	    -66.90536121	      4.43080214	      8.49573540	     89.80368846	     -6.34078441	     23.25731554	     65.46322653	     28.75811305	      0.00000000	      0.00000000	     86.62368437	    -12.39426944	     12.48413962	     60.42340572	     38.92425250	      0.00000000	      0.00000000
      7.55000000	    -18.51075431	     -3.66728520	     -6.73916029	      0.16883752	      1.16664763	     -0.24939287	      0.00000000	      0.50000000	      0.00000000	      0.25000000	     93.33525669	     -0.46008704	     -3.76207840	     98.71829236	      1.72295923	     -5.74049374	     -8.14810029	      0.00000000	      0.00000000	     43.99393047	    -13.07116689	     -6.10798130	     53.33658469	      0.93089901	      4.38544873	     -1.81654988	      0.00000000	      0.00000000	    -66.85289034	      4.29964716	      8.26726640	     89.80773031	     -6.23430810	     23.35181284	     65.75584101	     28.63997012	      0.00000000	      0.00000000	     86.70350713	    -13.16675984	     12.92171640	     60.81896868	     39.11988528	      0.00000000	      0.00000000
      7.55500000	    -18.80180454	     -3.57103570	     -6.68735497	      0.16813239	      1.16685158	     -0.24942542	      0.00000000	      0.50000000	      0.00000000	      0.25000000	     92.63994978	     -0.33672870	     -3.60076942	     96.94299791	      1.69197450	     -3.91508523	     -7.41030371	      0.00000000	      0.00000000	     45.31989034	    -13.01375861	     -5.52009478	     55.74607411	      0.97295254	      3.94886375	     -2.39878861	      0.00000000	      0.00000000	    -66.78985517	      4.34429928	      7.86692654	     89.81236249	     -5.99145693	     23.41108356	     66.08731986	     28.45626619	      0.00000000	      0.00000000	     86.74809332	    -14.22161433	     13.42162987	     61.49990733	     39.42097056	      0.00000000	      0.00000000
      7.56000000	    -18.94229524	     -3.43460798	     -6.80227429	      0.16763760	      1.16728008	     -0.24932320	      0.00000000	      0.50000000	      0.00000000	      0.25000000	     91.70390352	     -0.03592505	     -3.39066855	     95.08606218	      1.65956486	     -2.38409641	     -7.11504022	      0.00000000	      0.00000000	     46.41098518	    -13.02605586	     -5.13535133	     58.11973151	      1.01438068	      3.61843013	     -2.98998526	      0.00000000	      0.00000000	    -66.85582059	      4.12293492	      7.56950777	     89.81663139	     -5.95683130	     23.39471012	     66.27683930	     28.40607528	      0.00000000	      0.00000000	     87.00855231	    -14.68169341	     13.47645960	     61.76405434	     39.51554751	      0.00000000	      0.00000000
